<mxfile host="Electron" agent="Mozilla/5.0 (Windows NT 10.0; Win64; x64) AppleWebKit/537.36 (KHTML, like Gecko) draw.io/26.0.16 Chrome/132.0.6834.196 Electron/34.2.0 Safari/537.36" version="26.0.16">
  <diagram name="Page-1" id="GDurjrerB7HMA7BPzm49">
    <mxGraphModel dx="1434" dy="884" grid="1" gridSize="10" guides="1" tooltips="1" connect="1" arrows="1" fold="1" page="1" pageScale="1" pageWidth="850" pageHeight="1100" math="0" shadow="0">
      <root>
        <mxCell id="0" />
        <mxCell id="1" parent="0" />
        <mxCell id="7CvKFGk4JHUr4dhJOyNn-10" style="edgeStyle=orthogonalEdgeStyle;rounded=0;orthogonalLoop=1;jettySize=auto;html=1;entryX=0.5;entryY=0;entryDx=0;entryDy=0;fontSize=18;" edge="1" parent="1" source="7CvKFGk4JHUr4dhJOyNn-1" target="7CvKFGk4JHUr4dhJOyNn-2">
          <mxGeometry relative="1" as="geometry" />
        </mxCell>
        <mxCell id="7CvKFGk4JHUr4dhJOyNn-1" value="Start" style="strokeWidth=2;html=1;shape=mxgraph.flowchart.start_1;whiteSpace=wrap;fillColor=#ffe6cc;strokeColor=#d79b00;fontSize=18;fontStyle=1" vertex="1" parent="1">
          <mxGeometry x="445" y="130" width="100" height="60" as="geometry" />
        </mxCell>
        <mxCell id="7CvKFGk4JHUr4dhJOyNn-2" value="input a, b &amp;amp; c" style="shape=parallelogram;html=1;strokeWidth=2;perimeter=parallelogramPerimeter;whiteSpace=wrap;rounded=1;arcSize=12;size=0.23;fillColor=#ffe6cc;strokeColor=#d79b00;fontSize=18;" vertex="1" parent="1">
          <mxGeometry x="380" y="250" width="230" height="60" as="geometry" />
        </mxCell>
        <mxCell id="7CvKFGk4JHUr4dhJOyNn-12" style="edgeStyle=orthogonalEdgeStyle;rounded=0;orthogonalLoop=1;jettySize=auto;html=1;fontSize=18;" edge="1" parent="1" source="7CvKFGk4JHUr4dhJOyNn-3" target="7CvKFGk4JHUr4dhJOyNn-5">
          <mxGeometry relative="1" as="geometry" />
        </mxCell>
        <mxCell id="7CvKFGk4JHUr4dhJOyNn-13" style="edgeStyle=orthogonalEdgeStyle;rounded=0;orthogonalLoop=1;jettySize=auto;html=1;fontStyle=0;fontSize=18;" edge="1" parent="1" source="7CvKFGk4JHUr4dhJOyNn-3" target="7CvKFGk4JHUr4dhJOyNn-4">
          <mxGeometry relative="1" as="geometry" />
        </mxCell>
        <mxCell id="7CvKFGk4JHUr4dhJOyNn-3" value="is a &amp;gt; b?" style="strokeWidth=2;html=1;shape=mxgraph.flowchart.decision;whiteSpace=wrap;fillColor=#ffe6cc;strokeColor=#d79b00;fontSize=18;fontStyle=3" vertex="1" parent="1">
          <mxGeometry x="445" y="370" width="100" height="100" as="geometry" />
        </mxCell>
        <mxCell id="7CvKFGk4JHUr4dhJOyNn-14" style="edgeStyle=orthogonalEdgeStyle;rounded=0;orthogonalLoop=1;jettySize=auto;html=1;entryX=0.43;entryY=-0.017;entryDx=0;entryDy=0;entryPerimeter=0;fontSize=18;" edge="1" parent="1" source="7CvKFGk4JHUr4dhJOyNn-4" target="7CvKFGk4JHUr4dhJOyNn-7">
          <mxGeometry relative="1" as="geometry">
            <mxPoint x="470" y="710" as="targetPoint" />
          </mxGeometry>
        </mxCell>
        <mxCell id="7CvKFGk4JHUr4dhJOyNn-4" value="is a &amp;gt; c?" style="strokeWidth=2;html=1;shape=mxgraph.flowchart.decision;whiteSpace=wrap;fillColor=#ffe6cc;strokeColor=#d79b00;fontSize=18;fontStyle=3" vertex="1" parent="1">
          <mxGeometry x="270" y="500" width="100" height="100" as="geometry" />
        </mxCell>
        <mxCell id="7CvKFGk4JHUr4dhJOyNn-26" style="edgeStyle=orthogonalEdgeStyle;rounded=0;orthogonalLoop=1;jettySize=auto;html=1;entryX=0.66;entryY=-0.033;entryDx=0;entryDy=0;entryPerimeter=0;fontSize=18;" edge="1" parent="1" source="7CvKFGk4JHUr4dhJOyNn-5" target="7CvKFGk4JHUr4dhJOyNn-7">
          <mxGeometry relative="1" as="geometry">
            <mxPoint x="500" y="710" as="targetPoint" />
          </mxGeometry>
        </mxCell>
        <mxCell id="7CvKFGk4JHUr4dhJOyNn-32" style="edgeStyle=orthogonalEdgeStyle;rounded=0;orthogonalLoop=1;jettySize=auto;html=1;entryX=0.5;entryY=0;entryDx=0;entryDy=0;fontSize=18;" edge="1" parent="1" source="7CvKFGk4JHUr4dhJOyNn-5" target="7CvKFGk4JHUr4dhJOyNn-8">
          <mxGeometry relative="1" as="geometry" />
        </mxCell>
        <mxCell id="7CvKFGk4JHUr4dhJOyNn-5" value="is b &amp;gt; c?" style="strokeWidth=2;html=1;shape=mxgraph.flowchart.decision;whiteSpace=wrap;fillColor=#ffe6cc;strokeColor=#d79b00;fontSize=18;fontStyle=3" vertex="1" parent="1">
          <mxGeometry x="610" y="500" width="100" height="100" as="geometry" />
        </mxCell>
        <mxCell id="7CvKFGk4JHUr4dhJOyNn-6" value="print a" style="shape=parallelogram;html=1;strokeWidth=2;perimeter=parallelogramPerimeter;whiteSpace=wrap;rounded=1;arcSize=12;size=0.23;fillColor=#ffe6cc;strokeColor=#d79b00;fontSize=18;" vertex="1" parent="1">
          <mxGeometry x="230" y="660" width="140" height="60" as="geometry" />
        </mxCell>
        <mxCell id="7CvKFGk4JHUr4dhJOyNn-7" value="print c" style="shape=parallelogram;html=1;strokeWidth=2;perimeter=parallelogramPerimeter;whiteSpace=wrap;rounded=1;arcSize=12;size=0.23;fillColor=#ffe6cc;strokeColor=#d79b00;fontSize=18;" vertex="1" parent="1">
          <mxGeometry x="410" y="660" width="150" height="60" as="geometry" />
        </mxCell>
        <mxCell id="7CvKFGk4JHUr4dhJOyNn-8" value="print b" style="shape=parallelogram;html=1;strokeWidth=2;perimeter=parallelogramPerimeter;whiteSpace=wrap;rounded=1;arcSize=12;size=0.23;fillColor=#ffe6cc;strokeColor=#d79b00;fontSize=18;" vertex="1" parent="1">
          <mxGeometry x="580" y="660" width="160" height="60" as="geometry" />
        </mxCell>
        <mxCell id="7CvKFGk4JHUr4dhJOyNn-9" value="Exit" style="strokeWidth=2;html=1;shape=mxgraph.flowchart.start_1;whiteSpace=wrap;fillColor=#ffe6cc;strokeColor=#d79b00;fontStyle=1" vertex="1" parent="1">
          <mxGeometry x="435" y="830" width="100" height="60" as="geometry" />
        </mxCell>
        <mxCell id="7CvKFGk4JHUr4dhJOyNn-11" style="edgeStyle=orthogonalEdgeStyle;rounded=0;orthogonalLoop=1;jettySize=auto;html=1;entryX=0.5;entryY=0;entryDx=0;entryDy=0;entryPerimeter=0;fontSize=18;" edge="1" parent="1" source="7CvKFGk4JHUr4dhJOyNn-2" target="7CvKFGk4JHUr4dhJOyNn-3">
          <mxGeometry relative="1" as="geometry" />
        </mxCell>
        <mxCell id="7CvKFGk4JHUr4dhJOyNn-23" value="" style="endArrow=none;html=1;rounded=0;fontSize=18;" edge="1" parent="1">
          <mxGeometry width="50" height="50" relative="1" as="geometry">
            <mxPoint x="300" y="860" as="sourcePoint" />
            <mxPoint x="300" y="720" as="targetPoint" />
          </mxGeometry>
        </mxCell>
        <mxCell id="7CvKFGk4JHUr4dhJOyNn-25" value="" style="endArrow=classic;html=1;rounded=0;entryX=0;entryY=0.5;entryDx=0;entryDy=0;entryPerimeter=0;fontSize=18;" edge="1" parent="1" target="7CvKFGk4JHUr4dhJOyNn-9">
          <mxGeometry width="50" height="50" relative="1" as="geometry">
            <mxPoint x="300" y="860" as="sourcePoint" />
            <mxPoint x="370" y="860" as="targetPoint" />
          </mxGeometry>
        </mxCell>
        <mxCell id="7CvKFGk4JHUr4dhJOyNn-28" value="" style="endArrow=none;html=1;rounded=0;fontSize=18;" edge="1" parent="1">
          <mxGeometry width="50" height="50" relative="1" as="geometry">
            <mxPoint x="650" y="860" as="sourcePoint" />
            <mxPoint x="650" y="720" as="targetPoint" />
          </mxGeometry>
        </mxCell>
        <mxCell id="7CvKFGk4JHUr4dhJOyNn-29" value="" style="endArrow=classic;html=1;rounded=0;entryX=1;entryY=0.5;entryDx=0;entryDy=0;entryPerimeter=0;fontSize=18;" edge="1" parent="1" target="7CvKFGk4JHUr4dhJOyNn-9">
          <mxGeometry width="50" height="50" relative="1" as="geometry">
            <mxPoint x="650" y="860" as="sourcePoint" />
            <mxPoint x="640" y="820" as="targetPoint" />
          </mxGeometry>
        </mxCell>
        <mxCell id="7CvKFGk4JHUr4dhJOyNn-30" style="edgeStyle=orthogonalEdgeStyle;rounded=0;orthogonalLoop=1;jettySize=auto;html=1;entryX=0.5;entryY=0;entryDx=0;entryDy=0;entryPerimeter=0;fontSize=18;" edge="1" parent="1" source="7CvKFGk4JHUr4dhJOyNn-7" target="7CvKFGk4JHUr4dhJOyNn-9">
          <mxGeometry relative="1" as="geometry" />
        </mxCell>
        <mxCell id="7CvKFGk4JHUr4dhJOyNn-33" style="edgeStyle=orthogonalEdgeStyle;rounded=0;orthogonalLoop=1;jettySize=auto;html=1;entryX=0.643;entryY=0;entryDx=0;entryDy=0;entryPerimeter=0;" edge="1" parent="1" source="7CvKFGk4JHUr4dhJOyNn-4" target="7CvKFGk4JHUr4dhJOyNn-6">
          <mxGeometry relative="1" as="geometry" />
        </mxCell>
        <mxCell id="7CvKFGk4JHUr4dhJOyNn-35" value="No" style="text;html=1;align=center;verticalAlign=middle;resizable=0;points=[];autosize=1;strokeColor=none;fillColor=none;fontSize=16;fontStyle=1" vertex="1" parent="1">
          <mxGeometry x="390" y="518" width="40" height="30" as="geometry" />
        </mxCell>
        <mxCell id="7CvKFGk4JHUr4dhJOyNn-36" value="No" style="text;html=1;align=center;verticalAlign=middle;resizable=0;points=[];autosize=1;strokeColor=none;fillColor=none;fontSize=16;fontStyle=1" vertex="1" parent="1">
          <mxGeometry x="550" y="518" width="40" height="30" as="geometry" />
        </mxCell>
        <mxCell id="7CvKFGk4JHUr4dhJOyNn-37" value="No" style="text;html=1;align=center;verticalAlign=middle;resizable=0;points=[];autosize=1;strokeColor=none;fillColor=none;fontSize=16;fontStyle=1" vertex="1" parent="1">
          <mxGeometry x="620" y="390" width="40" height="30" as="geometry" />
        </mxCell>
        <mxCell id="7CvKFGk4JHUr4dhJOyNn-38" value="Yes" style="text;html=1;align=center;verticalAlign=middle;resizable=0;points=[];autosize=1;strokeColor=none;fillColor=none;fontSize=16;fontStyle=1" vertex="1" parent="1">
          <mxGeometry x="320" y="390" width="50" height="30" as="geometry" />
        </mxCell>
        <mxCell id="7CvKFGk4JHUr4dhJOyNn-39" value="Yes" style="text;html=1;align=center;verticalAlign=middle;resizable=0;points=[];autosize=1;strokeColor=none;fillColor=none;fontSize=16;fontStyle=1" vertex="1" parent="1">
          <mxGeometry x="270" y="610" width="50" height="30" as="geometry" />
        </mxCell>
        <mxCell id="7CvKFGk4JHUr4dhJOyNn-40" value="Yes" style="text;html=1;align=center;verticalAlign=middle;resizable=0;points=[];autosize=1;strokeColor=none;fillColor=none;fontSize=16;fontStyle=1" vertex="1" parent="1">
          <mxGeometry x="660" y="610" width="50" height="30" as="geometry" />
        </mxCell>
        <mxCell id="7CvKFGk4JHUr4dhJOyNn-41" value="Find &lt;font style=&quot;color: rgb(51, 51, 255);&quot;&gt;max&lt;/font&gt; of 3 numbers" style="text;html=1;align=center;verticalAlign=middle;resizable=0;points=[];autosize=1;strokeColor=none;fillColor=none;fontSize=22;fontStyle=5" vertex="1" parent="1">
          <mxGeometry x="80" y="70" width="250" height="40" as="geometry" />
        </mxCell>
        <mxCell id="7CvKFGk4JHUr4dhJOyNn-42" value="&lt;b&gt;&lt;font style=&quot;color: rgb(255, 181, 112);&quot;&gt;Input&lt;/font&gt;&lt;/b&gt;&lt;div&gt;&lt;br&gt;&lt;/div&gt;&lt;div&gt;3 numbers:&lt;/div&gt;&lt;div&gt;a, b &amp;amp; c&lt;/div&gt;" style="text;html=1;align=left;verticalAlign=middle;resizable=0;points=[];autosize=1;strokeColor=none;fillColor=none;fontSize=22;" vertex="1" parent="1">
          <mxGeometry x="50" y="220" width="130" height="120" as="geometry" />
        </mxCell>
        <mxCell id="7CvKFGk4JHUr4dhJOyNn-43" value="&lt;b&gt;&lt;font style=&quot;color: rgb(255, 181, 112);&quot;&gt;Output&lt;/font&gt;&lt;/b&gt;&lt;div&gt;&lt;br&gt;&lt;/div&gt;&lt;div&gt;max of 3&lt;/div&gt;" style="text;html=1;align=left;verticalAlign=middle;resizable=0;points=[];autosize=1;strokeColor=none;fillColor=none;fontSize=22;" vertex="1" parent="1">
          <mxGeometry x="50" y="645" width="110" height="90" as="geometry" />
        </mxCell>
      </root>
    </mxGraphModel>
  </diagram>
</mxfile>
